<?xml version="1.0" encoding="UTF-8" standalone="no"?>
<svg width="438px" height="471px" viewBox="0 0 438 471" version="1.1" xmlns="http://www.w3.org/2000/svg" xmlns:xlink="http://www.w3.org/1999/xlink">
    <!-- Generator: Sketch 3.6.1 (26313) - http://www.bohemiancoding.com/sketch -->
    <title>Untitled</title>
    <desc>Created with Sketch.</desc>
    <defs>
        <linearGradient x1="50.0000061%" y1="100%" x2="50.0000061%" y2="-3.50000005e-06%" id="linearGradient-1">
            <stop stop-color="#EA9617" offset="0%"></stop>
            <stop stop-color="#FFC57B" offset="100%"></stop>
        </linearGradient>
    </defs>
    <g id="Page-1" stroke="none" stroke-width="1" fill="none" fill-rule="evenodd">
        <g id="icon" transform="translate(1.000000, 0.000000)">
            <g id="layer1" transform="translate(340.000000, 8.709240)" fill="url(#linearGradient-1)">
                <path d="M0,65.15563 L0,31.4259 C0,4.18266 3.88785,0.29077 31.10302,0.29077 L64.8971,0.29077 C92.11217,0.29077 96,4.18266 96,31.4259 L96,65.15563 C96,92.39888 92.11217,96.29077 64.8971,96.29077 L31.10302,96.29077 C3.88785,96.29077 0,92.39888 0,65.15563 L0,65.15563 Z" id="path6455"></path>
            </g>
            <g id="layer3" transform="translate(362.000000, 32.000000)" fill="#FFFFFF">
                <path d="M-3.55271368e-15,25.8357024 C-3.55271368e-15,40.0883982 11.8423669,51.6714048 26.4142012,51.6714048 C40.9860355,51.6714048 52.8284024,40.0883982 52.8284024,25.8357024 C52.8284024,11.5830066 40.9860355,-3.55271368e-15 26.4142012,-3.55271368e-15 C11.8423669,-3.55271368e-15 -3.55271368e-15,11.5830066 -3.55271368e-15,25.8357024 L-3.55271368e-15,25.8357024 Z M4.40236686,25.8357024 C4.40236686,13.9512793 14.2636686,4.3059504 26.4142012,4.3059504 C38.5647337,4.3059504 48.4260355,13.9512793 48.4260355,25.8357024 C48.4260355,37.7201255 38.5647337,47.3654544 26.4142012,47.3654544 C14.2636686,47.3654544 4.40236686,37.7201255 4.40236686,25.8357024 L4.40236686,25.8357024 Z" id="Circle-Border"></path>
                <g id="Arrow" transform="translate(3.000000, 3.000000)">
                    <rect id="Rectangle" x="21.0360668" y="39.300987" width="5.61442671" height="5.61442671"></rect>
                    <rect id="Rectangle" x="21.0360668" y="0" width="5.61442671" height="5.61442671"></rect>
                    <path d="M15.4216401,40.300987 L32.2649202,40.300987 L23.8432801,29.0721335 L15.4216401,40.300987 Z" id="Shape"></path>
                    <path d="M15.4216401,4.61442671 L32.2649202,4.61442671 L23.8432801,15.8432801 L15.4216401,4.61442671 Z" id="Shape"></path>
                    <rect id="Rectangle" x="40.6865603" y="19.6504935" width="5.61442671" height="5.61442671"></rect>
                    <rect id="Rectangle" x="0.686560259" y="19.6504935" width="5.61442671" height="5.61442671"></rect>
                    <path d="M6,14.0360668 L6,30.8793469 L17.2288534,22.4577068 L6,14.0360668 Z" id="Shape"></path>
                    <path d="M41.6865603,14.0360668 L41.6865603,30.8793469 L30.4577068,22.4577068 L41.6865603,14.0360668 Z" id="Shape"></path>
                </g>
            </g>
        </g>
    </g>
</svg>